<svg xmlns="http://www.w3.org/2000/svg"  viewBox="0 0 64 64" width="64px" height="64px"><linearGradient id="fqThnXwiCzuV_2zSyPlh1a" x1="32" x2="32" y1="3374.973" y2="3420.566" gradientTransform="translate(0 -3365.89)" gradientUnits="userSpaceOnUse"><stop offset="0" stop-color="#1A6DFF"/><stop offset="1" stop-color="#C822FF"/></linearGradient><path fill="url(#fqThnXwiCzuV_2zSyPlh1a)" d="M50,55H14c-2.76,0-5-2.24-5-5V14c0-2.76,2.24-5,5-5h36c2.76,0,5,2.24,5,5v36	C55,52.76,52.76,55,50,55z M14,11c-1.65,0-3,1.35-3,3v36c0,1.65,1.35,3,3,3h36c1.65,0,3-1.35,3-3V14c0-1.65-1.35-3-3-3H14z"/><linearGradient id="fqThnXwiCzuV_2zSyPlh1b" x1="32" x2="32" y1="24.89" y2="14.89" gradientTransform="matrix(1 0 0 -1 0 63.89)" gradientUnits="userSpaceOnUse"><stop offset="0" stop-color="#8ab4ff"/><stop offset="1" stop-color="#e492ff"/></linearGradient><path fill="url(#fqThnXwiCzuV_2zSyPlh1b)" d="M23,44c0,2.761-2.239,5-5,5s-5-2.239-5-5s2.239-5,5-5S23,41.239,23,44z M46,39	c-2.761,0-5,2.239-5,5s2.239,5,5,5s5-2.239,5-5S48.761,39,46,39z M32,49c2.611,0,5.175-1.671,6-4H26C26.825,47.329,29.389,49,32,49z"/></svg>